<?xml version="1.0" encoding="utf-8"?>
<!-- Generator: Adobe Illustrator 24.2.1, SVG Export Plug-In . SVG Version: 6.00 Build 0)  -->
<svg version="1.1" id="IVbag_x5F_label" xmlns="http://www.w3.org/2000/svg" xmlns:xlink="http://www.w3.org/1999/xlink" x="0px"
	 y="0px" viewBox="0 0 512 512" style="enable-background:new 0 0 512 512;" xml:space="preserve">
<style type="text/css">
        @font-face {
            font-family: 'Arial';
            src: url(../fonts/arial.ttf);
        }
        
        @font-face {
            font-family: 'ArialNarrow';
            src: url(../fonts/ARIALN.TTF);
        }    
        @font-face {
            font-family: 'ArialNarrow-Bold';
            src: url(../fonts/ARIALNB.TTF)
        }
        @font-face {
            font-family: 'Arial-BoldMT';
            src: url(../fonts/arialbd.ttf);
        }
	.st0{filter:url(#AI_Shadow_1);}
	.st1{fill:#FFFFFF;}
	.st2{fill:none;stroke:#CCCCCC;stroke-miterlimit:10;}
	.st3{fill:#8BC731;}
	.st4{font-family:'Arial-BoldMT';}
	.st5{font-size:31px;}
	.st6{font-family:'ArialNarrow-Bold';}
	.st7{font-size:40px;}
	.st8{fill:none;stroke:#000000;stroke-width:2;stroke-miterlimit:10;}
	.st9{fill:none;}
	.st10{fill:#B3B3B3;}
	.st11{font-size:11px;}
	.st12{fill:#999999;}
	.st13{fill:#666666;}
	.st14{font-family:'ArialMT';}
	.st15{letter-spacing:1;}
	.st16{font-size:8px;}
	.st17{fill:#606060;}
	.volume{font-family:'Arial-BoldMT'; font-size:17px;}
</style>
<filter  filterUnits="objectBoundingBox" id="AI_Shadow_1">
	<feGaussianBlur  in="SourceAlpha" result="blur" stdDeviation="2"></feGaussianBlur>
	<feOffset  dx="4" dy="4" in="blur" result="offsetBlurredAlpha"></feOffset>
	<feMerge>
		<feMergeNode  in="offsetBlurredAlpha"></feMergeNode>
		<feMergeNode  in="SourceGraphic"></feMergeNode>
	</feMerge>
</filter>
<g class="st0">
	<path class="st1" d="M402.5,406h-317c-6.6,0-12-5.4-12-12V77c0-6.6,5.4-12,12-12h317c6.6,0,12,5.4,12,12v317
		C414.5,400.6,409.1,406,402.5,406z"/>
	<path class="st2" d="M402.5,406h-317c-6.6,0-12-5.4-12-12V77c0-6.6,5.4-12,12-12h317c6.6,0,12,5.4,12,12v317
		C414.5,400.6,409.1,406,402.5,406z"/>
</g>
<path class="st3" d="M368.5,207h-249c-6.6,0-12-5.4-12-12V97c0-6.6,5.4-12,12-12h249c6.6,0,12,5.4,12,12v98
	C380.5,201.6,375.1,207,368.5,207z"/>
<g id="drugUnit">
	<text transform="matrix(0.9289 0 0 1 189.6284 184.8027)" class="st4 st5">50 units</text>
</g>
<g id="drugVolume">
	<text transform="matrix(0.9289 0 0 1 183.7641 283.8027)" class="volume">volume:</text>
	<text transform="matrix(0.9289 0 0 1 253.063 283.8027)" class="volume">1000 ml</text>
</g>
<text transform="matrix(1 0 0 1 156.5649 141.0313)" class="st6 st7">Drug Name</text>
<g id="dosingUnit_copy">
</g>
<line class="st8" x1="346" y1="157" x2="346" y2="194"/>
<line class="st8" x1="346" y1="175" x2="380" y2="175"/>
<line class="st8" x1="141" y1="157" x2="141" y2="194"/>
<line class="st8" x1="141" y1="175" x2="107" y2="175"/>
<rect x="106.9" y="219" class="st9" width="274.2" height="36"/>
<text id="warning" transform="matrix(1 0 0 1 121.1534 226.9132)"><tspan x="0" y="0" class="st10 st4 st11">Store at Room Temperature. Preservative Free. </tspan><tspan x="-12.5" y="13.2" class="st10 st4 st11">Single-Dose Bag. Injection Solution for IV Use Only.</tspan></text>
<g transform="translate(0)">
	<rect x="201" y="303.9" class="st12" width="1.4" height="34.3"/>
</g>
<g transform="translate(4)">
	<rect x="199.8" y="303.9" class="st12" width="1.4" height="34.3"/>
</g>
<g transform="translate(8)">
	<rect x="198.5" y="303.9" class="st12" width="1.4" height="28"/>
</g>
<g transform="translate(12)">
	<rect x="197.3" y="303.9" class="st12" width="1.4" height="28"/>
</g>
<g transform="translate(14)">
	<rect x="196.7" y="303.9" class="st12" width="1.4" height="28"/>
</g>
<g transform="translate(16)">
	<rect x="196.1" y="303.9" class="st12" width="1.4" height="28"/>
</g>
<g transform="translate(18)">
	<rect x="195.5" y="303.9" class="st12" width="1.4" height="28"/>
</g>
<g transform="translate(22)">
	<rect x="194.3" y="303.9" class="st12" width="1.4" height="28"/>
</g>
<g transform="translate(24)">
	<rect x="193.7" y="303.9" class="st12" width="1.4" height="28"/>
</g>
<g transform="translate(32)">
	<rect x="191.2" y="303.9" class="st12" width="1.4" height="28"/>
</g>
<g transform="translate(38)">
	<rect x="189.4" y="303.9" class="st12" width="1.4" height="28"/>
</g>
<g transform="translate(44)">
	<rect x="187.5" y="303.9" class="st12" width="1.4" height="28"/>
</g>
<g transform="translate(46)">
	<rect x="186.9" y="303.9" class="st12" width="1.4" height="28"/>
</g>
<g transform="translate(50)">
	<rect x="185.7" y="303.9" class="st12" width="1.4" height="28"/>
</g>
<g transform="translate(52)">
	<rect x="185.1" y="303.9" class="st12" width="1.4" height="28"/>
</g>
<g transform="translate(56)">
	<rect x="183.9" y="303.9" class="st12" width="1.4" height="28"/>
</g>
<g transform="translate(58)">
	<rect x="183.3" y="303.9" class="st12" width="1.4" height="28"/>
</g>
<g transform="translate(60)">
	<rect x="182.7" y="303.9" class="st12" width="1.4" height="28"/>
</g>
<g transform="translate(66)">
	<rect x="180.8" y="303.9" class="st12" width="1.4" height="28"/>
</g>
<g transform="translate(68)">
	<rect x="180.2" y="303.9" class="st12" width="1.4" height="28"/>
</g>
<g transform="translate(74)">
	<rect x="178.4" y="303.9" class="st12" width="1.4" height="28"/>
</g>
<g transform="translate(82)">
	<rect x="175.9" y="303.9" class="st12" width="1.4" height="28"/>
</g>
<g transform="translate(84)">
	<rect x="175.3" y="303.9" class="st12" width="1.4" height="28"/>
</g>
<g transform="translate(88)">
	<rect x="174.1" y="303.9" class="st12" width="1.4" height="28"/>
</g>
<g transform="translate(92)">
	<rect x="172.9" y="303.9" class="st12" width="1.4" height="34.3"/>
</g>
<g transform="translate(96)">
	<rect x="171.7" y="303.9" class="st12" width="1.4" height="34.3"/>
</g>
<g transform="translate(100)">
	<rect x="170.5" y="303.9" class="st12" width="1.4" height="28"/>
</g>
<g transform="translate(102)">
	<rect x="169.8" y="303.9" class="st12" width="1.4" height="28"/>
</g>
<g transform="translate(108)">
	<rect x="168" y="303.9" class="st12" width="1.4" height="28"/>
</g>
<g transform="translate(110)">
	<rect x="167.4" y="303.9" class="st12" width="1.4" height="28"/>
</g>
<g transform="translate(114)">
	<rect x="166.2" y="303.9" class="st12" width="1.4" height="28"/>
</g>
<g transform="translate(116)">
	<rect x="165.6" y="303.9" class="st12" width="1.4" height="28"/>
</g>
<g transform="translate(122)">
	<rect x="163.7" y="303.9" class="st12" width="1.4" height="28"/>
</g>
<g transform="translate(124)">
	<rect x="163.1" y="303.9" class="st12" width="1.4" height="28"/>
</g>
<g transform="translate(128)">
	<rect x="161.9" y="303.9" class="st12" width="1.4" height="28"/>
</g>
<g transform="translate(130)">
	<rect x="161.3" y="303.9" class="st12" width="1.4" height="28"/>
</g>
<g transform="translate(132)">
	<rect x="160.7" y="303.9" class="st12" width="1.4" height="28"/>
</g>
<g transform="translate(136)">
	<rect x="159.5" y="303.9" class="st12" width="1.4" height="28"/>
</g>
<g transform="translate(142)">
	<rect x="157.6" y="303.9" class="st12" width="1.4" height="28"/>
</g>
<g transform="translate(152)">
	<rect x="154.6" y="303.9" class="st12" width="1.4" height="28"/>
</g>
<g transform="translate(156)">
	<rect x="153.4" y="303.9" class="st12" width="1.4" height="28"/>
</g>
<g transform="translate(166)">
	<rect x="150.3" y="303.9" class="st12" width="1.4" height="28"/>
</g>
<g transform="translate(170)">
	<rect x="149.1" y="303.9" class="st12" width="1.4" height="28"/>
</g>
<g transform="translate(178)">
	<rect x="146.6" y="303.9" class="st12" width="1.4" height="28"/>
</g>
<g transform="translate(184)">
	<rect x="144.8" y="303.9" class="st12" width="1.4" height="34.3"/>
</g>
<g transform="translate(188)">
	<rect x="143.6" y="303.9" class="st12" width="1.4" height="34.3"/>
</g>
<g>
	<text transform="matrix(1 0 0 1 190.6993 341.3604)" class="st13 st14 st11 st15">6</text>
</g>
<g>
	<text transform="matrix(1 0 0 1 215.5704 341.3604)" class="st12 st14 st11 st15">52810</text>
</g>
<g>
	<text transform="matrix(1 0 0 1 277.2638 341.3604)" class="st12 st14 st11 st15">11933</text>
</g>
<text transform="matrix(1 0 0 1 131.2832 274.6953)"><tspan x="0" y="0" class="st12 st4 st11">LOT</tspan><tspan x="0" y="26.4" class="st12 st4 st11">EXP</tspan></text>
<g>
	<text transform="matrix(1 0 0 1 217.3174 366.9004)" class="st12 st4 st16">Hospital/Office Use Only</text>
</g>
<g>
	<path class="st17" d="M361.6,342c1.6,0,3.2,0,4.9,0c0,0.4,0,0.8,0,1.2c0.5,0.1,0.9,0.1,1.2,0.1c0,0.4,0,0.8,0,1.1
		c-0.4,0-0.8,0-1.2,0c-0.1,0.5-0.1,0.9-0.1,1.2c-0.4,0-0.8,0-1.2,0c0-0.8,0-1.5,0-2.3c-0.4,0-0.8,0-1.2,0c0,0.4,0,0.7-0.1,1.2
		c-0.8,0-1.6,0-2.4,0c0,0.4,0,0.8,0,1.2c0.8,0,1.6,0,2.4,0c0,0.4,0,0.8,0.1,1.2c2.4,0,4.9,0,7.3,0c0,0.4,0,0.8,0,1.2
		c0.5,0,0.8,0.1,1.2,0.1c0,0.4,0,0.8,0.1,1.2c0.4,0,0.8,0,1.2,0c0,0.4,0,0.8,0,1.2c-1.6,0-3.2,0-4.9,0c0-0.4,0-0.8,0-1.2
		c0.4,0,0.7,0,1.1,0c0-0.4,0-0.8,0-1.1c-0.4,0-0.7,0-1.1,0c0,0.4,0,0.8,0,1.2c-0.4,0-0.8,0-1.3,0c0-0.4,0-0.8,0-1.2
		c-0.8,0-1.6,0-2.4,0c0,0.8,0,1.5,0,2.3c0.4,0,0.8,0,1.1,0c0-0.4,0.1-0.8,0.1-1.2c0.5,0,0.8,0,1.1,0c0,0.4,0,0.8,0,1.2
		c0.5,0,0.8,0,1.2,0c0,0.4,0,0.8,0,1.2c-0.4,0-0.7,0-1.1,0c0,0.4,0,0.8,0,1.1c0.4,0,0.7,0,1.1,0c0-0.4,0-0.8,0-1.2
		c1.2,0,2.4,0,3.7,0c0,0.9,0,1.7-0.1,2.5c-0.4,0-0.8,0-1.2,0c0,1.2,0,2.4,0,3.7c-0.5,0-0.8,0-1.2,0c0,0.4,0,0.7-0.1,1.1
		c-0.4,0-0.8,0-1.2,0c0-0.4,0-0.7-0.1-1.1c-0.4,0-0.8,0-1.2,0c0,0.4,0,0.7,0,1.1c-0.4,0-0.8,0.1-1.1,0.1c0,0.4,0,0.8,0,1.2
		c0.8,0,1.6,0,2.4,0c0,0.9,0,1.6,0,2.4c-0.4,0-0.8,0-1.2,0c0-0.4,0-0.8,0-1.2c-0.7,0-1.3,0-1.9,0c-0.6,0-1.2,0-1.8,0
		c0,0.5,0,0.8,0,1.2c-0.8,0-1.6,0-2.4,0c0,0.9,0,1.6,0,2.4c-0.4,0-0.8,0-1.2,0c-0.1,0.5-0.1,0.9-0.1,1.2c-0.8,0-1.6,0-2.4,0
		c0-0.4,0-0.8,0-1.2c0.4,0,0.7,0,1.1,0c0-0.4,0-0.8,0-1.1c-0.4,0-0.7,0-1.1,0c0,0.4,0,0.8,0,1.2c-0.4,0-0.8,0-1.2,0
		c-0.1-0.5-0.1-0.9-0.1-1.2c-0.4,0-0.8,0-1.1,0c0-0.4,0-0.8,0-1.2c0.5-0.1,0.9-0.1,1.2-0.1c0-0.4,0-0.8,0-1.1c-0.4,0-0.7,0-1.1-0.1
		c0-0.4-0.1-0.8-0.1-1.1c-0.4,0-0.8,0-1.1,0c0,0.4-0.1,0.8-0.1,1.2c-0.8,0-1.6,0-2.3,0c0-0.4,0-0.8,0-1.2c0.4,0,0.8-0.1,1.1-0.1
		c0-0.4,0-0.8,0-1.1c-0.4,0-0.7,0-1.1-0.1c0-0.4-0.1-0.8-0.1-1.1c-0.4,0-0.8,0-1.1,0c0,1.2,0,2.3,0,3.5c0,0,0.1,0.1,0.1,0.1
		c0.4,0,0.7,0,1.1,0c0,0.4,0,0.8,0,1.2c0.5,0.1,0.8,0.1,1.2,0.1c0,0.4,0,0.8,0,1.1c-0.4,0-0.8,0.1-1.1,0.1c0,0.4,0,0.8,0,1.1
		c0.4,0,0.8,0.1,1.1,0.1c0,0.4,0,0.8,0,1.1c-0.4,0-0.8,0.1-1.2,0.1c0,0.4,0,0.8,0,1.1c-0.8,0-1.6,0-2.4,0c0-0.4,0-0.8,0-1.2
		c0.4,0,0.8,0,1.2,0c0-0.9,0-1.6,0-2.4c-0.4,0-0.8,0-1.2,0c0,0.4,0,0.7,0,1.2c-0.4,0-0.8,0-1.1-0.1c0-2.1,0-4,0-6
		c0.4,0,0.8-0.1,1.2-0.1c0-3.3,0-6.5,0-9.7c0.4,0,0.8,0,1.3,0c0,1.7,0,3.2,0,4.8c0,0,0.1,0.1,0,0c0.4,0,0.7,0,1.1,0
		c0-0.8,0-1.5,0-2.3c0.4,0,0.8,0,1.2,0c0,0.4,0,0.7,0.1,1.1c0.4,0,0.8,0,1.1,0c0-0.8,0-1.6,0-2.3c-0.4,0-0.8-0.1-1.2-0.1
		c0-0.4,0-0.8,0-1.1c-0.4,0-0.8-0.1-1.2-0.1c0-0.4,0-0.8,0-1.1c0.4,0,0.8,0,1.2,0c0-0.5,0-0.9-0.1-1.2c-0.5,0-0.8,0-1.2,0
		c0-0.4,0-0.8,0-1.2c0.5-0.1,0.9-0.1,1.3-0.1c0-0.4,0-0.8,0-1.2c0.8,0,1.6,0,2.4,0c0-0.5,0-0.8,0-1.2c0.4,0,0.8,0,1.2,0
		c0,1.2,0,2.4,0,3.7c-0.4,0-0.8,0-1.2,0c0-0.4,0-0.7,0-1.1c-0.4,0-0.8,0-1.1,0c0,0.4,0,0.7,0,1.1c0.4,0,0.8,0,1.2,0
		c0,0.4,0,0.8,0,1.3c-0.4,0-0.7,0-1.1,0c0,0.4,0,0.8,0,1.1c0.4,0,0.7,0,1.1,0c0-0.4,0-0.8,0-1.2c0.4,0,0.8,0,1.2,0
		c0,0.4,0,0.8,0,1.2c0.4,0,0.8,0,1.2,0c0,0.4,0,0.8,0.1,1.1c0.8,0,1.6,0,2.4,0c0-0.4,0-0.7,0-1.1c-0.4,0-0.8-0.1-1.2-0.1
		c0-0.4,0-0.8,0-1.1c0.4,0,0.8,0,1.2,0c0-0.5,0-0.9-0.1-1.2c-0.5,0-0.8,0-1.2,0c0-0.8,0-1.6,0-2.4c0.5-0.1,0.9-0.1,1.2-0.1
		c0-0.4,0-0.8,0-1.1c0.4,0,0.8,0,1.2,0C361.6,342.8,361.6,342.4,361.6,342z M365.2,351.8c-2.9,0-5.7,0-8.5,0c0,2.8,0,5.5,0,8.2
		c0,0,0,0.1,0,0.1c0,0,0.1,0.1,0,0.1c2.8,0,5.6,0,8.4,0C365.2,357.4,365.2,354.6,365.2,351.8z M353.1,355.4c0.7,0,1.4,0,2,0
		c0.5,0,0.5-0.2,0.5-0.6c0-0.2,0-0.5-0.1-0.6c-0.8,0-1.6,0-2.3,0C353.1,354.6,353.1,355,353.1,355.4z M354.3,356.6c0,0.7,0,1.4,0,2
		c0,0.5,0.2,0.5,0.6,0.5c0.2,0,0.5,0,0.6-0.1c0-0.8,0-1.6,0-2.3C355.1,356.6,354.7,356.6,354.3,356.6z M362.8,350.5
		c0-0.5,0-0.8,0-1.2c-0.4,0-0.8,0-1.1,0.1c0,0.4,0,0.8,0,1.1C362,350.5,362.4,350.5,362.8,350.5z M367.6,355.4c0-0.5,0-0.8,0-1.2
		c-0.4,0-0.8,0-1.1,0.1c0,0.4,0,0.8,0,1.1C366.9,355.4,367.3,355.4,367.6,355.4z M368.7,354.2c0.4,0.5-0.1,1,0.5,1.2
		c0.3,0.1,0.7,0,0.9,0c0-0.4,0-0.8,0-1.1C369.7,354.2,369.3,354.2,368.7,354.2z M359.1,362.7c0-0.5,0-0.8,0-1.2
		c-0.4,0-0.8,0-1.1,0.1c0,0.4,0,0.8,0,1.1C358.4,362.7,358.7,362.7,359.1,362.7z"/>
	<path class="st1" d="M351.9,348.1c0,0.4,0,0.7,0,1.1c0.4,0,0.7,0.1,1.2,0.1c0,0.3,0,0.7,0,1.1c0.4,0,0.8,0.1,1.2,0.1
		c0,0.8,0,1.5,0,2.3c-0.4,0-0.7,0-1.1,0c0-0.4,0-0.7-0.1-1.1c-0.4,0-0.8,0-1.2,0c0,0.8,0,1.5,0,2.3c-0.4,0-0.7,0-1.1,0c0,0,0,0,0,0
		c0-1.6,0-3.1,0-4.8c-0.5,0-0.9,0-1.3,0c0-0.4,0-0.7,0-1.1c-0.4,0-0.8,0-1.1,0c0,0.4,0,0.7,0,1.1c0.4,0,0.8,0,1.2,0
		c0,3.2,0,6.4,0,9.7c-0.4,0-0.7,0.1-1.2,0.1c0,2,0,3.9,0,6c0.3,0,0.7,0,1.1,0.1c0-0.4,0-0.8,0-1.2c0.4,0,0.8,0,1.2,0
		c0,0.8,0,1.5,0,2.4c-0.4,0-0.7,0-1.2,0c0,0.4,0,0.8,0,1.2c0.8,0,1.6,0,2.4,0c0,0.4,0,0.8,0,1.2c-0.4,0-0.8,0-1.2,0
		c0,0.5,0,0.8,0,1.2c-0.4,0-0.8,0-1.2,0c0-0.4,0-0.8,0-1.2c-0.5,0-0.9,0-1.2,0.1c0,0.5,0,0.8,0,1.2c-0.4,0-0.8,0-1.2,0
		c0-4.5,0-8.9,0-13.4c0.4,0,0.8,0,1.2,0c0-2.1,0-4.1-0.1-6.1c-0.5,0-0.8,0-1.2,0c0-1.2,0-2.4,0-3.7c1.2,0,2.4,0,3.7,0
		c0,0.4,0,0.8,0,1.2C351.1,348.1,351.5,348.1,351.9,348.1z"/>
	<path class="st1" d="M368.9,362.7c0-0.8,0-1.5,0-2.4c-0.8,0-1.6,0-2.4,0c0-0.4,0-0.8,0-1.2c0.3,0,0.7-0.1,1.1-0.1
		c0-0.4,0-0.7,0-1.1c0.4,0,0.8,0,1.2,0c0,0.3,0,0.7,0.1,1.1c0.4,0,0.7,0,1.2,0c0-0.4,0-0.7,0.1-1.1c0.4,0,0.7,0,1.2,0
		c0-1.2,0-2.4,0-3.7c0.4,0,0.7,0,1.2,0c0.1-0.8,0-1.6,0.1-2.5c-1.3,0-2.5,0-3.7,0c0-0.4,0-0.8,0-1.2c1.6,0,3.2,0,4.9,0
		c0,0.8,0,1.6,0,2.4c0.4,0,0.8,0,1.2,0c0,1.6,0,3.2,0,4.9c-0.4,0-0.8,0-1.2,0c0-0.4,0-0.7,0-1.1c-0.4,0-0.8,0-1.1,0
		c0,0.4,0,0.7,0,1.1c0.4,0,0.8,0,1.2,0c0,0.4,0,0.8,0,1.2c0.5,0,0.8,0,1.2,0c0,0.8,0,1.6,0,2.4c-1.2,0-2.4,0-3.7,0
		c0-0.4,0-0.7,0-1.1c-0.4,0-0.8,0-1.1,0c0,0.4,0,0.7,0,1.1c0.4,0,0.8,0,1.2,0c0,0.8,0,1.6,0,2.5c-0.4,0-0.8,0-1.2,0
		c0-0.4,0-0.8,0-1.2C369.7,362.7,369.3,362.7,368.9,362.7z"/>
	<path class="st1" d="M371.3,346.9c-2.4,0-4.8,0-7.3,0c0-0.4,0-0.8-0.1-1.2c-0.8,0-1.6,0-2.4,0c0-0.4,0-0.8,0-1.2c0.8,0,1.6,0,2.4,0
		c0-0.4,0-0.8,0.1-1.2c0.4,0,0.8,0,1.2,0c0,0.8,0,1.5,0,2.3c0.4,0,0.7,0,1.2,0c0-0.3,0.1-0.7,0.1-1.2c0.4,0,0.8,0,1.2,0
		c0,0.4,0,0.7,0,1.1c0.4,0,0.8,0,1.1,0c0-0.4,0-0.7,0-1.1c-0.4,0-0.8,0-1.2,0c0-0.4,0-0.7,0-1.2c-0.4,0-0.7-0.1-1.2-0.1
		c0-0.4,0-0.8,0-1.2c1.6,0,3.2,0,4.9,0c0,0.4,0,0.8,0,1.2c-0.5,0.1-0.9,0.1-1.2,0.1c0,0.4,0,0.8,0,1.1c0.4,0,0.8,0.1,1.2,0.1
		C371.3,345.4,371.3,346.1,371.3,346.9z"/>
	<path class="st17" d="M365.3,370c-0.8,0-1.6,0-2.4,0c0-0.4,0-0.8,0-1.2c0.5-0.1,0.9-0.1,1.2-0.1c0-1.3,0-2.4,0-3.6
		c0.8,0,1.6,0,2.4,0c0,0.4,0,0.8,0,1.2c-0.4,0-0.7,0-1.1,0c0,0.4,0,0.8,0,1.1c0.4,0,0.7,0,1.1,0c0-0.4,0-0.8,0-1.2
		c0.4,0,0.8,0,1.3,0c0-0.5,0-0.9-0.1-1.2c-0.5,0-0.8,0-1.2,0c0-0.4,0-0.8,0-1.2c-0.5,0-0.8-0.1-1.2-0.1c0-0.4,0-0.8,0-1.2
		c0.8,0,1.6,0,2.4,0c0,0.4,0,0.8,0,1.2c0.5,0,0.8,0,1.2,0c0,0.8,0,1.6,0,2.4c0.5,0.1,0.8,0.1,1.2,0.1c0,0.8,0,1.6,0,2.4
		c-0.8,0-1.6,0-2.4,0c0,0.5,0,0.8,0,1.2c-0.4,0-0.8,0-1.2,0c0-0.4,0-0.8,0-1.2c-0.5,0-0.9,0-1.2,0.1
		C365.3,369.3,365.3,369.6,365.3,370z"/>
	<path class="st1" d="M367.7,370c0-0.4,0-0.7,0-1.2c0.8,0,1.6,0,2.4,0c0-0.8,0-1.6,0-2.4c-0.3,0-0.7-0.1-1.2-0.1c0-0.8,0-1.6,0-2.4
		c0.4,0,0.8,0,1.2,0c0,0.4,0,0.8,0,1.2c0.5,0,0.9,0,1.2-0.1c0-0.5,0-0.8,0-1.2c1.2,0,2.4,0,3.7,0c0,2,0,4.1,0,6.1
		c-0.8,0-1.6,0-2.4,0c0-0.4,0-0.8,0-1.2c0.5-0.1,0.9-0.1,1.2-0.1c0-0.4,0-0.8,0-1.1c-0.4,0-0.8-0.1-1.2-0.1c0-0.4,0-0.8,0-1.1
		c-0.4,0-0.7,0-1.2,0c0,1.2,0,2.4,0,3.6C370.1,370,368.9,370,367.7,370z"/>
	<path class="st1" d="M351.9,361.5c0.8,0,1.5,0,2.4,0c0-0.4,0.1-0.7,0.1-1.2c0.3,0,0.7,0,1.1,0c0,0.3,0.1,0.7,0.1,1.1
		c0.4,0,0.7,0,1.1,0.1c0,0.3,0,0.7,0,1.1c-0.3,0-0.7,0.1-1.2,0.1c0,0.4,0,0.8,0,1.2c-0.4,0-0.8,0-1.2,0c0.1,0.9-0.1,1.7,0.1,2.4
		c0.4,0,0.8,0,1.2,0c0,0.4,0,0.8,0,1.2c0.5,0.1,0.9,0.1,1.3,0.1c0,0.4,0,0.8,0,1.1c0.4,0,0.8,0.1,1.2,0.1c0,0.4,0,0.8,0,1.1
		c-0.8,0-1.6,0-2.4,0c0-0.4,0-0.8,0-1.2c-0.5,0-0.8-0.1-1.2-0.1c0-0.4,0-0.7,0-1.2c-0.8,0-1.6,0-2.4,0c0-0.4,0-0.7,0-1.1
		c0.4,0,0.7-0.1,1.2-0.1c0-0.3,0-0.7,0-1.1c-0.3,0-0.7-0.1-1.1-0.1c0-0.3,0-0.7,0-1.1c0.3,0,0.7-0.1,1.1-0.1c0-0.3,0-0.7,0-1.1
		c-0.3,0-0.7-0.1-1.2-0.1C351.9,362.3,351.9,361.9,351.9,361.5z"/>
	<path class="st1" d="M355.5,343.2c0,0.4,0,0.7,0,1.2c-0.8,0-1.6,0-2.4,0c0,0.4,0,0.8,0,1.2c-0.4,0-0.8,0.1-1.3,0.1
		c0,0.4,0,0.8,0,1.2c-0.4,0-0.8,0-1.2,0c0-0.4,0-0.8,0-1.2c-0.5-0.1-0.9-0.1-1.3-0.1c0-0.4,0-0.8,0-1.1c-0.4,0-0.8-0.1-1.2-0.1
		c0-0.9,0-1.6,0-2.4c1.2,0,2.4,0,3.7,0c0,0.4,0,0.8,0,1.2c0.5,0,0.9,0,1.2-0.1c0-0.5,0-0.8,0-1.2c0.4,0,0.8,0,1.2,0
		c0,0.4,0,0.8,0,1.2C354.8,343.2,355.1,343.2,355.5,343.2z"/>
	<path class="st1" d="M364,365.1c0,1.2,0,2.3,0,3.6c-0.4,0-0.7,0.1-1.2,0.1c0,0.4,0,0.8,0,1.2c-0.8,0-1.6,0-2.4,0c0-0.4,0-0.8,0-1.2
		c-0.5-0.1-0.9-0.1-1.3-0.1c0-0.4,0-0.8,0-1.1c-0.4,0-0.8-0.1-1.2-0.1c0-0.4,0-0.8,0-1.1c0.8,0,1.5,0,2.4,0c0-0.4,0.1-0.7,0.1-1.2
		c0.4,0,0.8,0,1.2,0c0,0.4,0,0.8,0,1.2c0.5,0,0.9,0,1.2-0.1c0-0.5,0-0.8,0-1.2C363.2,365.1,363.6,365.1,364,365.1z"/>
	<path class="st17" d="M348.2,342c0,0.8,0,1.5,0,2.4c0.4,0,0.7,0.1,1.2,0.1c0,0.3,0,0.7,0,1.1c0.4,0,0.8,0.1,1.3,0.1
		c0,0.4,0,0.8,0,1.2c-1.2,0-2.4,0-3.7,0c0-1.6,0-3.2,0-4.9C347.4,342,347.8,342,348.2,342z"/>
	<path class="st17" d="M371.3,346.9c0-0.8,0-1.5,0-2.4c-0.4,0-0.7-0.1-1.2-0.1c0-0.3,0-0.7,0-1.1c0.3,0,0.7-0.1,1.2-0.1
		c0-0.4,0-0.8,0-1.2c0.8,0,1.6,0,2.4,0c0,0.8,0,1.6,0,2.4c-0.4,0-0.8,0-1.3,0c0,0.9,0,1.7,0,2.4
		C372.1,346.9,371.7,346.9,371.3,346.9z"/>
	<path class="st1" d="M371.3,346.9c0.4,0,0.7,0,1.2,0c0-0.8,0-1.6,0-2.4c0.5,0,0.9,0,1.3,0c0,0.4,0,0.8,0,1.2c0.5,0,0.8,0,1.2,0
		c0,0.8,0,1.6,0,2.4c-0.4,0-0.8,0-1.2,0c0,0.5,0,0.8,0,1.2c-0.4,0-0.8,0-1.2,0c0-0.4,0-0.8-0.1-1.2c-0.4,0-0.7,0-1.2-0.1
		C371.3,347.6,371.3,347.3,371.3,346.9z"/>
	<ellipse class="st17" cx="373.2" cy="362.7" rx="2.6" ry="1.7"/>
	<path class="st17" d="M358,366.3c0,0.4,0,0.7,0,1.1c0.4,0,0.7,0.1,1.2,0.1c0,0.3,0,0.7,0,1.1c0.4,0,0.8,0.1,1.3,0.1
		c0,0.4,0,0.8,0,1.2c-0.8,0-1.6,0-2.4,0c0-0.4,0-0.7,0-1.1c-0.4,0-0.7-0.1-1.2-0.1c0-0.3,0-0.7,0-1.1c-0.4,0-0.8-0.1-1.3-0.1
		c0-0.4,0-0.8,0-1.2C356.3,366.3,357.1,366.3,358,366.3z"/>
	<path class="st17" d="M347,350.5c0.4,0,0.7,0,1.2,0c0.1,2,0,4,0.1,6.1c-0.4,0-0.8,0-1.2,0C347,354.6,347,352.6,347,350.5z"/>
	<path class="st17" d="M371.3,370c0-1.2,0-2.4,0-3.6c0.4,0,0.8,0,1.2,0c0,0.3,0,0.7,0,1.1c0.4,0,0.8,0.1,1.2,0.1c0,0.3,0,0.7,0,1.1
		c-0.3,0-0.7,0.1-1.2,0.1c0,0.4,0,0.8,0,1.2C372.2,370,371.8,370,371.3,370z"/>
	<path class="st17" d="M351.9,367.6c0.8,0,1.6,0,2.4,0c0,0.4,0,0.7,0,1.2c0.4,0,0.8,0.1,1.2,0.1c0,0.4,0,0.8,0,1.2
		c-0.8,0-1.6,0-2.4,0c0-0.4,0-0.8,0-1.2c-0.5,0-0.8,0-1.2,0C351.9,368.4,351.9,368,351.9,367.6z"/>
	<ellipse class="st17" cx="358.6" cy="342.6" rx="2.6" ry="0.9"/>
	<ellipse class="st1" cx="374.4" cy="343.2" rx="0.9" ry="1.7"/>
	<path class="st17" d="M375,353c-0.4,0-0.8,0-1.2,0c0-0.9,0-1.7,0-2.4c0.4,0,0.8,0,1.2,0C375,351.3,375,352.1,375,353z"/>
	<circle class="st1" cx="374.4" cy="349.9" r="0.9"/>
	<path class="st17" d="M353.1,342c0,0.4,0,0.7,0,1.2c-0.4,0-0.7,0-1.2,0.1c0-0.5,0-0.8,0-1.2C352.3,342,352.7,342,353.1,342z"/>
	<path class="st17" d="M355.5,343.2c-0.4,0-0.8,0-1.2,0c0-0.5,0-0.8,0-1.2c0.4,0,0.8,0,1.2,0C355.5,342.4,355.5,342.8,355.5,343.2z"
		/>
	<circle class="st1" cx="356.1" cy="342.6" r="0.9"/>
	<path class="st17" d="M373.8,357.8c0.4,0,0.8,0,1.2,0c0,0.4,0,0.8,0,1.2c-0.4,0-0.8,0-1.2,0C373.8,358.6,373.8,358.2,373.8,357.8z"
		/>
	<path class="st1" d="M360.4,343.2c0-0.4,0-0.8,0-1.2c0.4,0,0.8,0,1.2,0c0,0.4,0,0.8,0,1.2C361.2,343.2,360.8,343.2,360.4,343.2z"/>
	<path class="st17" d="M373.8,344.4c0.4,0,0.8,0,1.2,0c0,0.4,0,0.8,0,1.2c-0.4,0-0.8,0-1.2,0C373.8,345.2,373.8,344.8,373.8,344.4z"
		/>
	<path class="st17" d="M375,349.3c-0.4,0-0.8,0-1.2,0c0-0.4,0-0.8,0-1.2c0.5,0,0.8,0,1.2,0C375,348.5,375,348.9,375,349.3z"/>
	<path class="st17" d="M348.2,370c0-0.4,0-0.7,0-1.2c0.4,0,0.7,0,1.2-0.1c0,0.5,0,0.8,0,1.2C349,370,348.6,370,348.2,370z"/>
	<path class="st17" d="M350.7,370c0-0.4,0-0.8,0-1.2c0.5,0,0.8,0,1.2,0c0,0.4,0,0.8,0,1.2C351.5,370,351.1,370,350.7,370z"/>
	<path class="st1" d="M351.9,370c0-0.4,0-0.8,0-1.2c0.4,0,0.8,0,1.2,0c0,0.5,0,0.8,0,1.2C352.7,370,352.3,370,351.9,370z"/>
	<path class="st1" d="M365.3,370c0-0.4,0-0.7,0-1.2c0.4,0,0.7,0,1.2-0.1c0,0.5,0,0.8,0,1.2C366.1,370,365.7,370,365.3,370z"/>
	<path class="st1" d="M365.2,351.8c0,2.8,0,5.6,0,8.4c-2.8,0-5.6,0-8.4,0c0,0,0,0,0-0.1c0,0,0-0.1,0-0.1c0-2.7,0-5.5,0-8.2
		C359.6,351.8,362.3,351.8,365.2,351.8z M358,359c2.1,0,4,0,6.1,0c0-2,0-4,0-6c-2.1,0-4,0-6,0C358,355,358,357,358,359z"/>
	<path class="st1" d="M356.7,343.2c1.2,0,2.4,0,3.7,0c0,0.4,0,0.7,0,1.1c-0.4,0-0.7,0.1-1.2,0.1c0,0.8,0,1.6,0,2.4
		c-0.4,0-0.8,0-1.2,0c0,0.5,0,0.9,0.1,1.2c0.5,0,0.8,0,1.2,0c0,0.4,0,0.7,0,1.1c0.4,0,0.7,0.1,1.2,0.1c0,0.4,0,0.7,0,1.1
		c-0.7,0-1.5,0-2.4,0c0-0.3,0-0.7-0.1-1.1c-0.4,0-0.7,0-1.2,0c0-0.4,0-0.8,0-1.2c-0.4,0-0.8,0-1.2,0c0-0.4,0-0.8,0-1.2
		c0.4,0,0.8,0,1.2,0C356.7,345.6,356.7,344.4,356.7,343.2z"/>
	<path class="st1" d="M366.5,365.1c-0.8,0-1.6,0-2.4,0c0-0.4,0-0.8,0-1.2c-0.5,0-0.9,0-1.2,0.1c0,0.5,0,0.8,0,1.2
		c-0.4,0-0.8,0-1.2,0c0-0.8,0-1.5,0-2.4c0.8,0,1.6,0,2.4,0c0-0.4,0-0.8,0-1.2c0.6,0,1.2,0,1.8,0c0.6,0,1.2,0,1.9,0
		c0,0.4,0,0.8,0,1.2c-0.8,0-1.6,0-2.4,0c0,0.4,0,0.7,0,1.2c0.3,0,0.7,0.1,1.2,0.1C366.5,364.4,366.5,364.7,366.5,365.1z"/>
	<path class="st1" d="M351.9,361.5c-0.4,0-0.8,0-1.1,0c0,0-0.1-0.1-0.1-0.1c0-1.2,0-2.3,0-3.5c0.4,0,0.7,0,1.1,0
		c0,0.3,0.1,0.7,0.1,1.1c0.4,0,0.7,0,1.1,0.1c0,0.3,0,0.7,0,1.1c-0.3,0-0.7,0.1-1.1,0.1C351.9,360.7,351.9,361.1,351.9,361.5z"/>
	<path class="st1" d="M367.6,349.3c-0.3,0-0.7,0-1.1,0c0,0.4-0.1,0.7-0.1,1.2c-0.4,0-0.7,0-1.1,0c0-0.8,0-1.5,0-2.3
		c0.8,0,1.5,0,2.4,0C367.6,348.5,367.6,348.9,367.6,349.3z"/>
	<path class="st1" d="M358,366.3c-0.8,0-1.6,0-2.4,0c0-0.8,0-1.6,0-2.4c0.4,0,0.7,0,1.1,0c0,0.4,0.1,0.7,0.1,1.2c0.4,0,0.8,0,1.2,0
		C358,365.5,358,365.9,358,366.3z"/>
	<path class="st1" d="M353.1,355.4c0-0.4,0-0.8,0-1.2c0.8,0,1.5,0,2.3,0c0,0.2,0,0.4,0.1,0.6c0,0.3,0,0.6-0.5,0.6
		C354.5,355.4,353.9,355.4,353.1,355.4z"/>
	<path class="st1" d="M354.3,356.6c0.4,0,0.8,0,1.2,0c0,0.8,0,1.5,0,2.3c-0.2,0-0.4,0-0.6,0.1c-0.3,0-0.6,0-0.6-0.5
		C354.3,358,354.3,357.4,354.3,356.6z"/>
	<path class="st1" d="M362.8,350.5c-0.4,0-0.7,0-1.1,0c0-0.4,0-0.7,0-1.1c0.3,0,0.7,0,1.1-0.1C362.8,349.7,362.8,350,362.8,350.5z"
		/>
	<path class="st1" d="M367.7,349.3c0.4,0,0.8,0,1.2,0c0,0.4,0,0.8,0,1.2c-0.4,0-0.8,0-1.2,0C367.7,350.1,367.7,349.7,367.7,349.3z"
		/>
	<path class="st1" d="M368.9,351.8c0,0.3,0,0.7,0,1.1c-0.4,0-0.7,0-1.1,0c0-0.4,0-0.7,0-1.1C368.1,351.8,368.5,351.8,368.9,351.8z"
		/>
	<path class="st1" d="M367.6,355.4c-0.4,0-0.7,0-1.1,0c0-0.4,0-0.7,0-1.1c0.3,0,0.7,0,1.1-0.1C367.6,354.6,367.6,354.9,367.6,355.4z
		"/>
	<path class="st1" d="M368.7,354.2c0.6,0,1,0,1.4,0c0,0.4,0,0.7,0,1.1c-0.3,0-0.6,0.1-0.9,0C368.6,355.2,369.1,354.7,368.7,354.2z"
		/>
	<path class="st1" d="M359.1,362.7c-0.4,0-0.7,0-1.1,0c0-0.4,0-0.7,0-1.1c0.3,0,0.7,0,1.1-0.1C359.1,361.9,359.1,362.2,359.1,362.7z
		"/>
	<path class="st1" d="M355.5,346.8c-0.3,0-0.7,0-1.1,0c0-0.4,0-0.7,0-1.1c0.4,0,0.7,0,1.1,0C355.5,346.1,355.5,346.5,355.5,346.8z"
		/>
	<path class="st1" d="M368.9,363.9c-0.4,0-0.8,0-1.2,0c0-0.5,0-0.8,0-1.2c0.4,0,0.8,0,1.2,0C368.9,363.1,368.9,363.5,368.9,363.9z"
		/>
	<path class="st1" d="M351.9,346.9c0.4,0,0.7,0,1.2,0c0,0.4,0,0.7,0.1,1.2c-0.5,0-0.8,0-1.2,0C351.9,347.7,351.9,347.3,351.9,346.9z
		"/>
	<path class="st1" d="M358,365.1c0-0.3,0-0.7,0-1.1c0.4,0,0.7,0,1.1,0c0,0.4,0,0.7,0,1.1C358.7,365.1,358.3,365.1,358,365.1z"/>
	<path class="st1" d="M359.2,346.9c0.4,0,0.7,0,1.2,0c0,0.4,0,0.7,0.1,1.2c-0.5,0-0.8,0-1.2,0C359.2,347.7,359.2,347.3,359.2,346.9z
		"/>
	<path class="st1" d="M355.5,348.1c0,0.3,0,0.7,0,1.1c-0.4,0-0.7,0-1.1,0c0-0.4,0-0.7,0-1.1C354.8,348.1,355.1,348.1,355.5,348.1z"
		/>
	<path class="st1" d="M369,349.3c0-0.3,0-0.7,0-1.1c0.4,0,0.7,0,1.1,0c0,0.4,0,0.7,0,1.1C369.7,349.3,369.3,349.3,369,349.3z"/>
	<path class="st17" d="M351.9,346.9c0,0.4,0,0.8,0,1.2c-0.4,0-0.8,0-1.2,0c0-0.5,0-0.8,0-1.2C351.1,346.9,351.5,346.9,351.9,346.9z"
		/>
	<path class="st17" d="M349.4,349.3c-0.3,0-0.7,0-1.1,0c0-0.4,0-0.7,0-1.1c0.4,0,0.7,0,1.1,0C349.4,348.5,349.4,348.9,349.4,349.3z"
		/>
	<path class="st17" d="M373.7,357.8c-0.3,0-0.7,0-1.1,0c0-0.4,0-0.7,0-1.1c0.4,0,0.7,0,1.1,0C373.7,357.1,373.7,357.4,373.7,357.8z"
		/>
	<path class="st17" d="M371.3,361.4c-0.3,0-0.7,0-1.1,0c0-0.4,0-0.7,0-1.1c0.4,0,0.7,0,1.1,0C371.3,360.7,371.3,361.1,371.3,361.4z"
		/>
	<path class="st17" d="M368.9,363.9c0-0.4,0-0.8,0-1.2c0.4,0,0.8,0,1.2,0c0,0.5,0,0.8,0,1.2C369.7,363.9,369.3,363.9,368.9,363.9z"
		/>
	<path class="st17" d="M371.3,363.9c0,0.4,0,0.7,0,1.2c-0.4,0-0.7,0-1.2,0.1c0-0.5,0-0.8,0-1.2C370.5,363.9,370.9,363.9,371.3,363.9
		z"/>
	<path class="st17" d="M367.7,344.5c0.3,0,0.7,0,1.1,0c0,0.4,0,0.7,0,1.1c-0.4,0-0.7,0-1.1,0C367.7,345.2,367.7,344.8,367.7,344.5z"
		/>
	<path class="st1" d="M366.5,366.3c0-0.4,0-0.8,0-1.2c0.4,0,0.7,0,1.2,0c0,0.4,0,0.7,0.1,1.2C367.3,366.3,366.9,366.3,366.5,366.3z"
		/>
	<path class="st1" d="M366.4,366.4c0,0.3,0,0.7,0,1.1c-0.4,0-0.7,0-1.1,0c0-0.4,0-0.7,0-1.1C365.7,366.4,366.1,366.4,366.4,366.4z"
		/>
	<path class="st17" d="M355.5,363.9c0,0.8,0,1.6,0,2.4c-0.4,0-0.7,0-1.2,0c-0.1-0.8,0-1.6-0.1-2.4
		C354.7,363.9,355.1,363.9,355.5,363.9z"/>
	<path class="st17" d="M362.8,365.1c0-0.4,0-0.7,0-1.2c0.4,0,0.7,0,1.2-0.1c0,0.5,0,0.8,0,1.2C363.6,365.1,363.2,365.1,362.8,365.1z
		"/>
	<path class="st17" d="M361.6,365.1c0.4,0,0.8,0,1.2,0c0,0.4,0,0.7,0,1.2c-0.4,0-0.7,0-1.2,0.1C361.6,365.9,361.6,365.5,361.6,365.1
		z"/>
	<path class="st17" d="M358,359c0-2,0-4,0-6c2,0,3.9,0,6,0c0.1,1.9,0,3.9,0,6C362,359,360.1,359,358,359z M362.8,357.8
		c0-1.3,0-2.4,0-3.6c-0.6,0-1.2,0-1.8,0c-0.6,0-1.2,0-1.7,0c0,1.3,0,2.4,0,3.6C360.4,357.8,361.6,357.8,362.8,357.8z"/>
	<path class="st17" d="M359.2,346.9c0,0.4,0,0.8,0,1.2c-0.4,0-0.7,0-1.2,0c0-0.4,0-0.7-0.1-1.2C358.4,346.9,358.8,346.9,359.2,346.9
		z"/>
	<path class="st1" d="M362.8,357.8c-1.2,0-2.4,0-3.6,0c0-1.2,0-2.3,0-3.6c0.5,0,1.1,0,1.7,0c0.6,0,1.2,0,1.8,0
		C362.8,355.4,362.8,356.5,362.8,357.8z M361.6,356.6c0-0.5,0-0.8,0-1.2c-0.4,0-0.8,0-1.1,0.1c0,0.4,0,0.8,0,1.1
		C360.8,356.6,361.2,356.6,361.6,356.6z"/>
	<path class="st17" d="M361.6,356.6c-0.4,0-0.7,0-1.1,0c0-0.4,0-0.7,0-1.1c0.3,0,0.7,0,1.1-0.1C361.6,355.8,361.6,356.1,361.6,356.6
		z"/>
</g>
<image style="overflow:visible;" width="224" height="350" id="CSC_x5F_logo_1_" xlink:href=".\csc_logo.jpg"  transform="matrix(0.1629 0 0 0.1629 133 313)">
</image>
</svg>
