<svg version="1.1" id="Layer_1" xmlns="http://www.w3.org/2000/svg" xmlns:xlink="http://www.w3.org/1999/xlink" x="0px" y="0px"
	 viewBox="0 0 75 46" style="enable-background:new 0 0 75 46;" xml:space="preserve">
<style type="text/css">
	.st0{fill:#FFFFFF;}
</style>
<g>
	<path class="st0" d="M6.8,45C3.6,45,1,42.4,1,39.2V6.8C1,3.6,3.6,1,6.8,1h61.3C71.4,1,74,3.6,74,6.8v32.3c0,3.2-2.6,5.8-5.8,5.8
		H6.8z"/>
	<path d="M68.2,2.1c2.6,0,4.8,2.1,4.8,4.8v32.3c0,2.6-2.1,4.8-4.8,4.8H6.8c-2.6,0-4.8-2.1-4.8-4.8V6.8c0-2.6,2.1-4.8,4.8-4.8H68.2
		 M68.2,0H6.8C3.1,0,0,3.1,0,6.8v32.3C0,42.9,3.1,46,6.8,46h61.3c3.8,0,6.8-3.1,6.8-6.8V6.8C75,3.1,71.9,0,68.2,0L68.2,0z"/>
</g>
<g>
	<rect x="18.3" y="7.5" width="35.8" height="2.5"/>
</g>
<g>
	<rect x="18.3" y="12.5" width="35.8" height="2.5"/>
</g>
<g>
	<rect x="52.7" y="36" width="16.1" height="2.5"/>
</g>
<g>
	<rect x="18.3" y="17.5" width="35.8" height="11"/>
</g>
</svg>
