<svg version="1.1" id="yellow_Label" xmlns="http://www.w3.org/2000/svg" xmlns:xlink="http://www.w3.org/1999/xlink" x="0px"
	 y="0px" viewBox="0 0 348 238" style="enable-background:new 0 0 348 238;" xml:space="preserve">
<style type="text/css">
        @font-face {
            font-family: 'Arial';
            src: url(../fonts/arial.ttf);
        }
        
        @font-face {
            font-family: 'ArialNarrow';
            src: url(../fonts/ARIALN.TTF);
        }    
        @font-face {
            font-family: 'ArialNarrow-Bold';
            src: url(../fonts/ARIALNB.TTF)
        }
        @font-face {
            font-family: 'Arial-BoldMT';
            src: url(../fonts/arialbd.ttf);
        }
        
	.st0{fill:#F9F9F9;stroke:#B3B3B3;stroke-miterlimit:10;}
	.st1{fill:#FFED83;}
	.st2{fill:#808080;}
	.st3{font-family:'Arial';}
	.st4{font-size:8.2247px;}
	.st5{letter-spacing:1;}
	.st6{fill:#00566D;}
	.st7{font-family:'Arial';}
	.st8{font-size:9.6839px;}
	.st9{font-size:11.7458px;}
	.st10{font-size:11.2756px;}
	.st11{fill:#666666;}
	.st12{font-size:8px;}
	.st13{fill:#FFFFFF;}
	.st14{font-size:13px;}
	.st15{font-family:'ArialNarrow-Bold';}
	.st16{font-size:16.5594px;}
	.st17{font-family:'Arial-BoldMT';}
	.st18{font-size:19.9543px;}
</style>
<g id="static">
	<path class="st0" d="M335.5,237.5h-323c-6.6,0-12-5.4-12-12v-213c0-6.6,5.4-12,12-12h323c6.6,0,12,5.4,12,12v213
		C347.5,232.1,342.1,237.5,335.5,237.5z"/>
	<rect x="132.8" y="1.5" class="st1" width="163" height="235"/>
	<g id="barcoad">
		<g transform="translate(0)">
			<rect x="317.6" y="222.3" class="st2" width="19.9" height="0.9"/>
		</g>
		<g transform="translate(4)">
			<rect x="313.6" y="220.5" class="st2" width="19.9" height="0.9"/>
		</g>
		<g transform="translate(8)">
			<rect x="309.6" y="218.7" class="st2" width="16" height="0.9"/>
		</g>
		<g transform="translate(12)">
			<rect x="305.6" y="217" class="st2" width="16" height="0.9"/>
		</g>
		<g transform="translate(14)">
			<rect x="303.6" y="216.1" class="st2" width="16" height="0.9"/>
		</g>
		<g transform="translate(16)">
			<rect x="301.6" y="215.2" class="st2" width="16" height="0.9"/>
		</g>
		<g transform="translate(18)">
			<rect x="299.6" y="214.3" class="st2" width="16" height="0.9"/>
		</g>
		<g transform="translate(22)">
			<rect x="295.6" y="212.5" class="st2" width="16" height="0.9"/>
		</g>
		<g transform="translate(24)">
			<rect x="293.6" y="211.6" class="st2" width="16" height="0.9"/>
		</g>
		<g transform="translate(32)">
			<rect x="285.6" y="208.1" class="st2" width="16" height="0.9"/>
		</g>
		<g transform="translate(38)">
			<rect x="279.6" y="205.4" class="st2" width="16" height="0.9"/>
		</g>
		<g transform="translate(44)">
			<rect x="273.6" y="202.8" class="st2" width="16" height="0.9"/>
		</g>
		<g transform="translate(46)">
			<rect x="271.6" y="201.9" class="st2" width="16" height="0.9"/>
		</g>
		<g transform="translate(50)">
			<rect x="267.6" y="200.1" class="st2" width="16" height="0.9"/>
		</g>
		<g transform="translate(52)">
			<rect x="265.6" y="199.3" class="st2" width="16" height="0.9"/>
		</g>
		<g transform="translate(56)">
			<rect x="261.6" y="197.5" class="st2" width="16" height="0.9"/>
		</g>
		<g transform="translate(58)">
			<rect x="259.6" y="196.6" class="st2" width="16" height="0.9"/>
		</g>
		<g transform="translate(60)">
			<rect x="257.6" y="195.7" class="st2" width="16" height="0.9"/>
		</g>
		<g transform="translate(66)">
			<rect x="251.6" y="193.1" class="st2" width="16" height="0.9"/>
		</g>
		<g transform="translate(68)">
			<rect x="249.6" y="192.2" class="st2" width="16" height="0.9"/>
		</g>
		<g transform="translate(74)">
			<rect x="243.6" y="189.5" class="st2" width="16" height="0.9"/>
		</g>
		<g transform="translate(82)">
			<rect x="235.6" y="186" class="st2" width="16" height="0.9"/>
		</g>
		<g transform="translate(84)">
			<rect x="233.6" y="185.1" class="st2" width="16" height="0.9"/>
		</g>
		<g transform="translate(88)">
			<rect x="229.6" y="183.3" class="st2" width="16" height="0.9"/>
		</g>
		<g transform="translate(92)">
			<rect x="225.6" y="181.6" class="st2" width="19.9" height="0.9"/>
		</g>
		<g transform="translate(96)">
			<rect x="221.6" y="179.8" class="st2" width="19.9" height="0.9"/>
		</g>
		<g transform="translate(100)">
			<rect x="217.6" y="178" class="st2" width="16" height="0.9"/>
		</g>
		<g transform="translate(102)">
			<rect x="215.6" y="177.1" class="st2" width="16" height="0.9"/>
		</g>
		<g transform="translate(108)">
			<rect x="209.6" y="174.5" class="st2" width="16" height="0.9"/>
		</g>
		<g transform="translate(110)">
			<rect x="207.6" y="173.6" class="st2" width="16" height="0.9"/>
		</g>
		<g transform="translate(114)">
			<rect x="203.6" y="171.8" class="st2" width="16" height="0.9"/>
		</g>
		<g transform="translate(116)">
			<rect x="201.6" y="170.9" class="st2" width="16" height="0.9"/>
		</g>
		<g transform="translate(122)">
			<rect x="195.6" y="168.3" class="st2" width="16" height="0.9"/>
		</g>
		<g transform="translate(124)">
			<rect x="193.6" y="167.4" class="st2" width="16" height="0.9"/>
		</g>
		<g transform="translate(128)">
			<rect x="189.6" y="165.6" class="st2" width="16" height="0.9"/>
		</g>
		<g transform="translate(130)">
			<rect x="187.6" y="164.7" class="st2" width="16" height="0.9"/>
		</g>
		<g transform="translate(132)">
			<rect x="185.6" y="163.9" class="st2" width="16" height="0.9"/>
		</g>
		<g transform="translate(136)">
			<rect x="181.6" y="162.1" class="st2" width="16" height="0.9"/>
		</g>
		<g transform="translate(142)">
			<rect x="175.6" y="159.4" class="st2" width="16" height="0.9"/>
		</g>
		<g transform="translate(152)">
			<rect x="165.6" y="155" class="st2" width="16" height="0.9"/>
		</g>
		<g transform="translate(156)">
			<rect x="161.6" y="153.2" class="st2" width="16" height="0.9"/>
		</g>
		<g transform="translate(166)">
			<rect x="151.6" y="148.8" class="st2" width="16" height="0.9"/>
		</g>
		<g transform="translate(170)">
			<rect x="147.6" y="147" class="st2" width="16" height="0.9"/>
		</g>
		<g transform="translate(178)">
			<rect x="139.6" y="143.5" class="st2" width="16" height="0.9"/>
		</g>
		<g transform="translate(184)">
			<rect x="133.6" y="140.8" class="st2" width="19.9" height="0.9"/>
		</g>
		<g transform="translate(188)">
			<rect x="129.6" y="139.1" class="st2" width="19.9" height="0.9"/>
		</g>
		<g>
			<text transform="matrix(-5.343782e-24 -1 1 -5.343782e-24 340.8298 229.6973)" class="st2 st3 st4 st5">6</text>
		</g>
		<g>
			<text transform="matrix(-5.343782e-24 -1 1 -5.343782e-24 340.8298 213.8551)" class="st2 st3 st4 st5">52810</text>
		</g>
		<g>
			<text transform="matrix(-5.343782e-24 -1 1 -5.343782e-24 340.8298 174.5596)" class="st2 st3 st4 st5">11933</text>
		</g>
		<g>
			<text transform="matrix(-5.343782e-24 -1 1 -5.343782e-24 340.8298 136.5919)" class="st2 st3 st4 st5">7</text>
		</g>
	</g>
	<text transform="matrix(1 0 0 1 179.5835 29.8379)"><tspan x="0" y="0" class="st6 st7 st8">ABC 000-0000-00</tspan><tspan x="-11" y="10" class="st6 st7 st8">DEF 0000-00-000-0000</tspan><tspan x="10.2" y="20" class="st6 st7 st8">Code 0A000</tspan></text>
	<text transform="matrix(0.9289 0 0 1 184.6197 110.5635)" class="st6 st3 st9">For injection</text>
	<text transform="matrix(0.9289 0 0 1 198.4973 188.9375)" class="st6 st7 st10">Rx only</text>
	<text transform="matrix(1.0124 0 0 1 22.6191 30.104)"><tspan x="0" y="0" class="st11 st3 st12">See full prescribing</tspan><tspan x="0" y="11.8" class="st11 st3 st12">information for dosage</tspan><tspan x="0" y="23.7" class="st11 st3 st12">and administration.</tspan></text>
	<text transform="matrix(1.0124 0 0 1 22.6191 75.104)"><tspan x="0" y="0" class="st11 st3 st12">Dispense in a tight</tspan><tspan x="0" y="11.8" class="st11 st3 st12">ligh-resistant container</tspan><tspan x="0" y="23.7" class="st11 st3 st12">as described in USP.</tspan></text>
	<text transform="matrix(1.0124 0 0 1 22.6191 117.104)"><tspan x="0" y="0" class="st11 st3 st12">Store at 25</tspan><tspan x="39.1" y="-2" class="st11 st3 st12">º</tspan><tspan x="42.1" y="0" class="st11 st3 st12">C (77</tspan><tspan x="61.6" y="-2" class="st11 st3 st12">º</tspan><tspan x="64.5" y="0" class="st11 st3 st12">F);</tspan><tspan x="0" y="11.8" class="st11 st3 st12">excursions permitted to</tspan></text>
	<text transform="matrix(1.0124 0 0 1 22.6191 143.1035)"><tspan x="0" y="0" class="st11 st3 st12">15</tspan><tspan x="8.9" y="-2" class="st11 st3 st12">º</tspan><tspan x="11.8" y="0" class="st11 st3 st12">- 30</tspan><tspan x="25.6" y="-2" class="st11 st3 st12">º</tspan><tspan x="28.5" y="0" class="st11 st3 st12">C (59</tspan><tspan x="48.1" y="-2" class="st11 st3 st12">º</tspan><tspan x="51" y="0" class="st11 st3 st12">-86</tspan><tspan x="62.6" y="-2" class="st11 st3 st12">º</tspan><tspan x="65.5" y="0" class="st11 st3 st12">F).</tspan><tspan x="0" y="11.8" class="st11 st3 st12">[See USP Controlled</tspan><tspan x="0" y="23.7" class="st11 st3 st12">Room Temperature</tspan></text>
	<text transform="matrix(1.0124 0 0 1 52.6191 189.1035)"><tspan x="0" y="0" class="st11 st3 st12">CSC Pharmacy</tspan><tspan x="0" y="11.8" class="st11 st3 st12">NH, USA</tspan></text>
	<text transform="matrix(0.9289 0 0 1 52.6191 218.104)" class="st11 st3 st12">4562-14</text>
	<path class="st13" d="M281.8,141.5h-135c-2.8,0-5-2.3-5-5v-10c0-2.8,2.3-5,5-5h135c2.8,0,5,2.3,5,5v10
		C286.8,139.3,284.6,141.5,281.8,141.5z"/>
	
		<image style="overflow:visible;" width="224" height="350" xlink:href="..\imgs\csc_logo.jpg"  transform="matrix(0.12 0 0 0.12 20.5 178.5)">
	</image>
</g>
<text transform="matrix(0.9289 0 0 1 155.9422 158.8418)" class="st3 st14">Vial for reconstruction</text>
<text transform="matrix(0.9289 0 0 1 193.5681 136.3604)" class="st15 st16">50 mg</text>
<text transform="matrix(1 0 0 1 161.1109 83.083)" class="st17 st18">Drug Name</text>
</svg>
